# xmcd
#
# Track frame offsets: 
#        150
#        21047
#        42964
#        61330
#        84460
#        107229
#        127092
#        151857
#        165632
#        189162
#        211182
#        230682
#        249182
#        265232
#        285895
#
# Disc length: 4081 seconds
#
# Revision: 1
# Processed by: cddbd v1.4PL0 Copyright (c) Steve Scherf et al.
# Submitted via: ExactAudioCopy v0.95a3
#
DISCID=be0fef0f
DTITLE=情牽女人心 - 情牽女人心2
DYEAR=1900
DGENRE=
TTITLE0=當愛已成往事
TTITLE1=領悟
TTITLE2=夢醒時分
TTITLE3=試著了解
TTITLE4=愛的代價
TTITLE5=最浪漫的事
TTITLE6=玫瑰人生
TTITLE7=夢田
TTITLE8=大雨
TTITLE9=猜心
TTITLE10=不必在乎我是誰
TTITLE11=我一個人住
TTITLE12=天天天藍
TTITLE13=無言的表示
TTITLE14=明天我要嫁給你啦
EXTD=
EXTT0=
EXTT1=
EXTT2=
EXTT3=
EXTT4=
EXTT5=
EXTT6=
EXTT7=
EXTT8=
EXTT9=
EXTT10=
EXTT11=
EXTT12=
EXTT13=
EXTT14=
PLAYORDER=
